<?xml version="1.0" encoding="UTF-8"?>
<svg id="Layer_1" xmlns="http://www.w3.org/2000/svg" version="1.1" viewBox="0 0 813.96 97.79">
  <!-- Generator: Adobe Illustrator 29.1.0, SVG Export Plug-In . SVG Version: 2.1.0 Build 142)  -->
  <defs>
    <style>
      .st0 {
        fill: #004a25;
      }
    </style>
  </defs>
  <path class="st0" d="M135.41,9.27h-25.77v81.88h13.79v-30.79h11.76l20.53,30.79h15.52l-21.9-33.47c9.15-3.98,14.5-12.22,14.5-22.65,0-15.41-11.42-25.77-28.42-25.77M123.43,22.29h11.53c9.78,0,14.74,4.29,14.74,12.75s-4.82,12.42-14.74,12.42h-11.53v-25.17Z"/>
  <path class="st0" d="M235.76,7.81c-23.84,0-42.51,18.62-42.51,42.4s18.67,42.4,42.51,42.4,42.52-18.62,42.52-42.4-18.67-42.4-42.52-42.4M235.76,79.3c-16.07,0-28.19-12.51-28.19-29.09s12.12-29.09,28.19-29.09,28.19,12.51,28.19,29.09-12.12,29.09-28.19,29.09"/>
  <polygon class="st0" points="351.28 68.03 375.27 37.53 375.27 91.15 389.06 91.15 389.06 9.27 381.34 9.27 349.21 49.03 317.08 9.27 309.37 9.27 309.37 91.15 323.16 91.15 323.16 37.53 347.15 68.03 351.28 68.03"/>
  <polygon class="st0" points="537.58 91.15 537.58 22.29 560.94 22.29 560.94 9.27 500.42 9.27 500.42 22.29 523.78 22.29 523.78 91.15 537.58 91.15"/>
  <rect class="st0" x="593.39" y="9.27" width="13.79" height="81.88"/>
  <path class="st0" d="M680.23,7.81c-23.92,0-41.96,18.23-41.96,42.4-.06,11.67,4.2,22.4,11.97,30.22,7.82,7.85,18.55,12.18,30.2,12.18,14.54,0,26.16-5.58,34.54-16.58l.4-.53,1.7-2.23-11.22-7.91-1.58,2.1-.37.5c-5.57,7.42-13.61,11.34-23.25,11.34-16.27,0-28.08-12.24-28.08-29.09s11.83-29.09,27.52-29.09c9.16,0,16.5,3.49,21.82,10.37l.38.49,1.6,2.07,11.02-7.94-1.68-2.21-.4-.52c-7.77-10.19-19.05-15.57-32.63-15.57"/>
  <path class="st0" d="M474.12,91.13h15.5l-33.63-81.86h-7.13l-33.63,81.86h15.5l6.94-18.56h29.51l6.94,18.56ZM452.42,35.12l10.16,25.24h-20.32c.63-1.57,10.16-25.24,10.16-25.24Z"/>
  <path class="st0" d="M83.48,91.13L49.84,9.27h-7.13L9.08,91.13h15.5l6.95-18.57c4.13,2.83,9.2,4.48,14.75,4.48s10.62-1.65,14.75-4.49l6.95,18.58h15.5ZM46.28,64.75c-4.2,0-7.8-1.69-10.15-4.43.66-1.64,10.15-25.2,10.15-25.2l10.15,25.2c-2.35,2.73-5.95,4.43-10.15,4.43Z"/>
  <path class="st0" d="M808.94,91.13l-33.63-81.86h-7.13l-33.63,81.86h15.5l6.95-18.57c4.13,2.83,9.2,4.48,14.75,4.48s10.62-1.65,14.75-4.49l6.95,18.58h15.5ZM771.75,64.75c-4.2,0-7.8-1.69-10.15-4.43.66-1.64,10.15-25.2,10.15-25.2l10.15,25.2c-2.35,2.73-5.95,4.43-10.15,4.43Z"/>
</svg>